<?xml version="1.0" encoding="UTF-8"?>
<!DOCTYPE svg PUBLIC "-//W3C//DTD SVG 1.1//EN" "http://www.w3.org/Graphics/SVG/1.1/DTD/svg11.dtd">
<svg xmlns="http://www.w3.org/2000/svg" version="1.1" width="1024px" height="1024px" style="shape-rendering:geometricPrecision; text-rendering:geometricPrecision; image-rendering:optimizeQuality; fill-rule:evenodd; clip-rule:evenodd" xmlns:xlink="http://www.w3.org/1999/xlink">
<g><path style="opacity:1" fill="#020201" d="M -0.5,-0.5 C 340.833,-0.5 682.167,-0.5 1023.5,-0.5C 1023.5,340.833 1023.5,682.167 1023.5,1023.5C 682.167,1023.5 340.833,1023.5 -0.5,1023.5C -0.5,682.167 -0.5,340.833 -0.5,-0.5 Z"/></g>
<g><path style="opacity:1" fill="#fac515" d="M 836.5,138.5 C 726.835,139.833 616.835,140.5 506.5,140.5C 396.333,140.5 286.333,140.167 176.5,139.5C 396.46,138.502 616.46,138.169 836.5,138.5 Z"/></g>
<g><path style="opacity:1" fill="#f0b712" d="M 836.5,138.5 C 872.619,140.14 895.119,158.474 904,193.5C 904.667,405.833 904.667,618.167 904,830.5C 899.838,851.321 888.671,867.154 870.5,878C 863.898,881.534 856.898,883.867 849.5,885C 625.167,885.667 400.833,885.667 176.5,885C 145.455,878.955 126.621,860.455 120,829.5C 119.5,618.834 119.333,408.167 119.5,197.5C 120.333,407 120.833,616.666 121,826.5C 121.202,828.256 121.702,829.922 122.5,831.5C 122.833,831.333 123.167,831.167 123.5,831C 122.751,829.266 122.251,827.433 122,825.5C 121.341,614.476 121.341,403.476 122,192.5C 121.667,193.833 121.333,195.167 121,196.5C 120.517,195.552 120.351,194.552 120.5,193.5C 124.739,171.201 137.072,155.034 157.5,145C 163.582,142.25 169.916,140.416 176.5,139.5C 286.333,140.167 396.333,140.5 506.5,140.5C 616.835,140.5 726.835,139.833 836.5,138.5 Z"/></g>
<g><path style="opacity:1" fill="#fdca0e" d="M 881.5,167.5 C 890.027,175.897 894.86,186.231 896,198.5C 896.667,407.167 896.667,615.833 896,824.5C 895.833,618.666 895.333,413 894.5,207.5C 895.36,192.414 891.027,179.081 881.5,167.5 Z"/></g>
<g><path style="opacity:1" fill="#020201" d="M 881.5,167.5 C 891.027,179.081 895.36,192.414 894.5,207.5C 894.667,415.5 894.5,623.5 894,831.5C 887.976,854.69 873.476,869.357 850.5,875.5C 624.146,875.829 397.812,875.496 171.5,874.5C 149.234,867.396 135.4,852.396 130,829.5C 129.5,819.506 129.334,809.506 129.5,799.5C 129.17,596.806 129.503,394.139 130.5,191.5C 137.93,168.907 153.263,154.741 176.5,149C 400.5,148.333 624.5,148.333 848.5,149C 861.329,152.015 872.329,158.182 881.5,167.5 Z"/></g>
<g><path style="opacity:1" fill="#fde41b" d="M 561.5,373.5 C 560.292,374.234 558.959,374.567 557.5,374.5C 544.163,374.667 530.829,374.5 517.5,374C 531.878,373.817 546.211,373.317 560.5,372.5C 561.107,372.624 561.44,372.957 561.5,373.5 Z"/></g>
<g><path style="opacity:1" fill="#eeb71c" d="M 764.5,329.5 C 774.497,327.991 778.33,331.991 776,341.5C 768.405,346.049 760.571,350.215 752.5,354C 744.141,353.636 741.308,349.469 744,341.5C 750.978,337.6 757.812,333.6 764.5,329.5 Z"/></g>
<g><path style="opacity:1" fill="#fad81c" d="M 278.5,262.5 C 258.208,284.3 237.042,305.967 215,327.5C 213,331.5 213,335.5 215,339.5C 229.5,354 244,368.5 258.5,383C 262.949,384.439 267.282,384.939 271.5,384.5C 266.779,387.235 262.113,387.068 257.5,384C 243,369.5 228.5,355 214,340.5C 211.02,335.708 211.02,331.041 214,326.5C 235.368,304.965 256.868,283.632 278.5,262.5 Z"/></g>
<g><path style="opacity:1" fill="#f8d71e" d="M 524.5,257.5 C 547.799,280.298 570.965,303.298 594,326.5C 597.409,332.197 596.909,337.531 592.5,342.5C 591.957,342.44 591.624,342.107 591.5,341.5C 594.793,337.156 595.293,332.489 593,327.5C 569.292,304.3 546.459,280.967 524.5,257.5 Z"/></g>
<g><path style="opacity:1" fill="#efb91c" d="M 696.5,263.5 C 702.529,262.867 705.863,265.534 706.5,271.5C 705.953,279.627 704.287,287.46 701.5,295C 694.123,298.568 689.789,296.402 688.5,288.5C 689.216,280.975 690.716,273.642 693,266.5C 694.145,265.364 695.312,264.364 696.5,263.5 Z"/></g>
<g><path style="opacity:1" fill="#efb41b" d="M 524.5,257.5 C 546.459,280.967 569.292,304.3 593,327.5C 595.293,332.489 594.793,337.156 591.5,341.5C 591.624,342.107 591.957,342.44 592.5,342.5C 582.5,353.167 572.167,363.5 561.5,373.5C 561.44,372.957 561.107,372.624 560.5,372.5C 546.211,373.317 531.878,373.817 517.5,374C 530.829,374.5 544.163,374.667 557.5,374.5C 540.295,375.072 522.961,375.905 505.5,377C 483.046,384.455 470.546,399.955 468,423.5C 467.667,462.5 467.333,501.5 467,540.5C 466.044,543.377 464.711,546.044 463,548.5C 462.184,549.823 461.017,550.489 459.5,550.5C 457.188,551.32 454.854,552.153 452.5,553C 404.998,553.167 357.665,553.667 310.5,554.5C 309.508,554.672 308.842,554.338 308.5,553.5C 305.912,551.439 303.078,548.773 300,545.5C 299.544,544.256 300.044,543.423 301.5,543C 300.234,542.691 299.067,542.191 298,541.5C 297.667,485.5 297.333,429.5 297,373.5C 296.617,372.944 296.117,372.611 295.5,372.5C 293.932,371.527 292.265,371.36 290.5,372C 284.284,376.389 277.951,380.556 271.5,384.5C 267.282,384.939 262.949,384.439 258.5,383C 244,368.5 229.5,354 215,339.5C 213,335.5 213,331.5 215,327.5C 237.042,305.967 258.208,284.3 278.5,262.5C 282.11,258.193 286.776,255.693 292.5,255C 311.167,254.333 329.833,254.333 348.5,255C 350.624,256.122 352.457,257.622 354,259.5C 364.46,278.074 380.46,287.74 402,288.5C 424.883,288.234 441.883,278.234 453,258.5C 454.579,256.959 456.413,255.792 458.5,255C 479.5,254.333 500.5,254.333 521.5,255C 522.571,255.852 523.571,256.685 524.5,257.5 Z"/></g>
<g><path style="opacity:1" fill="#efb71c" d="M 728.5,417.5 C 727.167,483.833 727.167,550.167 728.5,616.5C 725.184,626.317 718.518,632.483 708.5,635C 640.776,635.99 573.109,635.656 505.5,634C 497.413,630.352 492.246,624.185 490,615.5C 489.333,550.167 489.333,484.833 490,419.5C 493.167,408.333 500.333,401.167 511.5,398C 576.833,397.333 642.167,397.333 707.5,398C 718.561,400.23 725.561,406.73 728.5,417.5 Z"/></g>
<g><path style="opacity:1" fill="#fef121" d="M 704.5,410.5 C 641.832,410.333 579.166,410.5 516.5,411C 514.482,411.505 512.482,412.005 510.5,412.5C 511.681,410.933 513.347,410.099 515.5,410C 579.237,409.169 642.237,409.336 704.5,410.5 Z"/></g>
<g><path style="opacity:1" fill="#030202" d="M 704.5,410.5 C 710.148,412.65 713.981,416.65 716,422.5C 716.667,485.167 716.667,547.833 716,610.5C 713.88,616.789 709.714,620.789 703.5,622.5C 639.832,622.667 576.166,622.5 512.5,622C 507.572,620.073 504.406,616.573 503,611.5C 502.174,547.793 502.341,484.126 503.5,420.5C 505.461,417.537 507.794,414.871 510.5,412.5C 512.482,412.005 514.482,411.505 516.5,411C 579.166,410.5 641.832,410.333 704.5,410.5 Z"/></g>
<g><path style="opacity:1" fill="#f7d91e" d="M 581.5,487.5 C 581.622,472.744 581.455,457.744 581,442.5C 580.5,442 580,441.5 579.5,441C 574.72,439.01 569.72,437.843 564.5,437.5C 553.284,438.135 542.117,438.801 531,439.5C 530.601,439.272 530.435,438.938 530.5,438.5C 546.333,436.312 562.333,436.145 578.5,438C 580,438.833 581.167,440 582,441.5C 582.816,456.908 582.649,472.241 581.5,487.5 Z"/></g>
<g><path style="opacity:1" fill="#efc51d" d="M 688.5,489.5 C 689.637,473.211 689.804,456.878 689,440.5C 688.5,440 688,439.5 687.5,439C 671.833,438.333 656.167,438.333 640.5,439C 640,439.5 639.5,440 639,440.5C 638.706,454.009 638.206,467.509 637.5,481C 637.443,483.96 637.943,486.793 639,489.5C 644.002,491.027 649.169,491.694 654.5,491.5C 665.334,490.5 676.001,490.5 686.5,491.5C 671.179,492.504 655.846,492.671 640.5,492C 639.069,491.535 637.903,490.701 637,489.5C 636.03,472.742 636.363,456.075 638,439.5C 638.903,438.299 640.069,437.465 641.5,437C 657.259,436.032 672.926,436.365 688.5,438C 689.701,438.903 690.535,440.069 691,441.5C 691.667,456.833 691.667,472.167 691,487.5C 690.292,488.381 689.458,489.047 688.5,489.5 Z"/></g>
<g><path style="opacity:1" fill="#f0b51c" d="M 581.5,487.5 C 580.942,488.79 579.942,489.623 578.5,490C 563.167,490.667 547.833,490.667 532.5,490C 529.921,488.924 528.254,487.091 527.5,484.5C 528.182,469.961 528.849,455.295 529.5,440.5C 529.376,439.893 529.043,439.56 528.5,439.5C 528.842,438.662 529.508,438.328 530.5,438.5C 530.435,438.938 530.601,439.272 531,439.5C 542.117,438.801 553.284,438.135 564.5,437.5C 569.72,437.843 574.72,439.01 579.5,441C 580,441.5 580.5,442 581,442.5C 581.455,457.744 581.622,472.744 581.5,487.5 Z"/></g>
<g><path style="opacity:1" fill="#eeb31c" d="M 688.5,489.5 C 688.167,490.5 687.5,491.167 686.5,491.5C 676.001,490.5 665.334,490.5 654.5,491.5C 649.169,491.694 644.002,491.027 639,489.5C 637.943,486.793 637.443,483.96 637.5,481C 638.206,467.509 638.706,454.009 639,440.5C 639.5,440 640,439.5 640.5,439C 656.167,438.333 671.833,438.333 687.5,439C 688,439.5 688.5,440 689,440.5C 689.804,456.878 689.637,473.211 688.5,489.5 Z"/></g>
<g><path style="opacity:1" fill="#eeb71d" d="M 607.5,435.5 C 615.098,435.334 617.931,439.001 616,446.5C 611.884,451.249 607.551,451.582 603,447.5C 601.474,442.239 602.974,438.239 607.5,435.5 Z"/></g>
<g><path style="opacity:1" fill="#030201" d="M 540.5,450.5 C 550.167,450.5 559.833,450.5 569.5,450.5C 569.5,459.5 569.5,468.5 569.5,477.5C 560.06,477.945 550.726,477.445 541.5,476C 540.517,467.585 540.183,459.085 540.5,450.5 Z"/></g>
<g><path style="opacity:1" fill="#030201" d="M 652.5,450.5 C 660.752,450.184 668.919,450.518 677,451.5C 677.667,460.167 677.667,468.833 677,477.5C 668.245,478.65 659.412,478.816 650.5,478C 649.748,477.329 649.414,476.496 649.5,475.5C 649.334,467.493 649.5,459.493 650,451.5C 650.671,450.748 651.504,450.414 652.5,450.5 Z"/></g>
<g><path style="opacity:1" fill="#f8d21d" d="M 503.5,420.5 C 502.341,484.126 502.174,547.793 503,611.5C 504.406,616.573 507.572,620.073 512.5,622C 576.166,622.5 639.832,622.667 703.5,622.5C 640.237,623.664 576.237,623.831 511.5,623C 504.96,620.436 501.46,615.603 501,608.5C 500.333,547.167 500.333,485.833 501,424.5C 501.2,422.68 502.034,421.347 503.5,420.5 Z"/></g>
<g><path style="opacity:1" fill="#fee71f" d="M 652.5,450.5 C 651.504,450.414 650.671,450.748 650,451.5C 649.5,459.493 649.334,467.493 649.5,475.5C 648.343,467.344 648.177,459.01 649,450.5C 649.75,449.874 650.584,449.374 651.5,449C 659.5,448.333 667.5,448.333 675.5,449C 667.656,449.171 659.989,449.671 652.5,450.5 Z"/></g>
<g><path style="opacity:1" fill="#fbed1b" d="M 528.5,439.5 C 529.043,439.56 529.376,439.893 529.5,440.5C 528.849,455.295 528.182,469.961 527.5,484.5C 527.184,469.422 527.517,454.422 528.5,439.5 Z"/></g>
<g><path style="opacity:1" fill="#f8cb1a" d="M 295.5,372.5 C 296.117,372.611 296.617,372.944 297,373.5C 297.333,429.5 297.667,485.5 298,541.5C 299.067,542.191 300.234,542.691 301.5,543C 300.044,543.423 299.544,544.256 300,545.5C 303.078,548.773 305.912,551.439 308.5,553.5C 302.086,550.916 297.92,546.249 296,539.5C 295.5,483.834 295.333,428.168 295.5,372.5 Z"/></g>
<g><path style="opacity:1" fill="#fbe41d" d="M 611.5,483.5 C 612.794,484.29 613.961,485.29 615,486.5C 615.5,498.162 615.667,509.829 615.5,521.5C 614.67,510.674 614.17,499.674 614,488.5C 613.215,486.714 612.049,485.214 610.5,484C 610.728,483.601 611.062,483.435 611.5,483.5 Z"/></g>
<g><path style="opacity:1" fill="#f9c712" d="M 130.5,191.5 C 129.503,394.139 129.17,596.806 129.5,799.5C 128.671,807.323 128.171,815.323 128,823.5C 127.333,615.167 127.333,406.833 128,198.5C 128.539,195.471 129.206,192.471 130,189.5C 130.464,190.094 130.631,190.761 130.5,191.5 Z"/></g>
<g><path style="opacity:1" fill="#efb91d" d="M 678.5,510.5 C 682.839,509.846 686.673,510.846 690,513.5C 690.968,522.837 686.801,526.004 677.5,523C 675.556,520.847 675.056,518.347 676,515.5C 676.847,513.807 677.68,512.14 678.5,510.5 Z"/></g>
<g><path style="opacity:1" fill="#eeb81d" d="M 533.5,508.5 C 540.276,507.776 543.11,510.776 542,517.5C 539.928,522.143 536.428,523.643 531.5,522C 526.064,516.759 526.731,512.259 533.5,508.5 Z"/></g>
<g><path style="opacity:1" fill="#f9c91e" d="M 728.5,417.5 C 729.827,483.791 729.827,550.125 728.5,616.5C 727.167,550.167 727.167,483.833 728.5,417.5 Z"/></g>
<g><path style="opacity:1" fill="#efb61c" d="M 611.5,483.5 C 611.062,483.435 610.728,483.601 610.5,484C 612.049,485.214 613.215,486.714 614,488.5C 614.17,499.674 614.67,510.674 615.5,521.5C 616.473,521.987 617.473,522.487 618.5,523C 626.484,523.856 634.484,524.523 642.5,525C 644,525.833 645.167,527 646,528.5C 646.667,537.5 646.667,546.5 646,555.5C 642.941,559.137 639.441,559.47 635.5,556.5C 634.52,555.019 633.353,553.685 632,552.5C 631.323,548.593 630.49,544.759 629.5,541C 624.914,540.803 620.414,540.303 616,539.5C 614.603,534.292 614.103,528.959 614.5,523.5C 605.505,524.208 596.505,524.375 587.5,524C 581.607,522.79 578.773,519.29 579,513.5C 580.543,511.622 582.376,510.122 584.5,509C 589.823,508.501 595.156,508.334 600.5,508.5C 600.334,501.159 600.5,493.826 601,486.5C 601.5,484.667 602.667,483.5 604.5,483C 607.039,482.204 609.372,482.371 611.5,483.5 Z"/></g>
<g><path style="opacity:1" fill="#fded21" d="M 580.5,543.5 C 564.198,542.378 547.865,542.211 531.5,543C 530.667,543.833 529.833,544.667 529,545.5C 528.601,545.272 528.435,544.938 528.5,544.5C 528.953,543.542 529.619,542.708 530.5,542C 546.833,541.333 563.167,541.333 579.5,542C 580.056,542.383 580.389,542.883 580.5,543.5 Z"/></g>
<g><path style="opacity:1" fill="#eeb31c" d="M 580.5,543.5 C 581.833,560.5 581.833,577.5 580.5,594.5C 580.027,595.906 579.027,596.573 577.5,596.5C 561.914,595.969 546.247,595.136 530.5,594C 529.874,593.25 529.374,592.416 529,591.5C 528.831,576.328 528.331,561.328 527.5,546.5C 527.328,545.508 527.662,544.842 528.5,544.5C 528.435,544.938 528.601,545.272 529,545.5C 529.833,544.667 530.667,543.833 531.5,543C 547.865,542.211 564.198,542.378 580.5,543.5 Z"/></g>
<g><path style="opacity:1" fill="#efc719" d="M 459.5,550.5 C 457.351,552.746 454.684,554.246 451.5,555C 404.429,555.828 357.429,555.661 310.5,554.5C 357.665,553.667 404.998,553.167 452.5,553C 454.854,552.153 457.188,551.32 459.5,550.5 Z"/></g>
<g><path style="opacity:1" fill="#080602" d="M 543.5,554.5 C 551.507,554.334 559.507,554.5 567.5,555C 568,555.5 568.5,556 569,556.5C 569.802,565.245 569.636,573.912 568.5,582.5C 559.667,583.82 550.833,583.82 542,582.5C 540.688,573.865 540.355,565.199 541,556.5C 541.995,555.934 542.828,555.267 543.5,554.5 Z"/></g>
<g><path style="opacity:1" fill="#f4d11f" d="M 543.5,554.5 C 551.656,553.343 559.99,553.177 568.5,554C 569,554.5 569.5,555 570,555.5C 571.05,563.817 571.384,572.15 571,580.5C 570.581,581.672 569.915,582.672 569,583.5C 568.601,583.272 568.435,582.938 568.5,582.5C 569.636,573.912 569.802,565.245 569,556.5C 568.5,556 568,555.5 567.5,555C 559.507,554.5 551.507,554.334 543.5,554.5 Z"/></g>
<g><path style="opacity:1" fill="#edb31b" d="M 687.5,560.5 C 688.481,572.697 688.815,584.697 688.5,596.5C 687.942,597.79 686.942,598.623 685.5,599C 673.5,599.667 661.5,599.667 649.5,599C 644.619,594.625 644.285,589.958 648.5,585C 657.405,585.204 666.239,585.037 675,584.5C 675.172,577.654 675.672,570.987 676.5,564.5C 676.334,570.842 676.5,577.175 677,583.5C 677.333,576.833 677.667,570.167 678,563.5C 680.546,560.814 683.713,559.814 687.5,560.5 Z"/></g>
<g><path style="opacity:1" fill="#e8c81c" d="M 580.5,543.5 C 581.458,543.953 582.292,544.619 583,545.5C 583.667,561.167 583.667,576.833 583,592.5C 582.292,593.381 581.458,594.047 580.5,594.5C 581.833,577.5 581.833,560.5 580.5,543.5 Z"/></g>
<g><path style="opacity:1" fill="#fbdf1e" d="M 687.5,560.5 C 683.713,559.814 680.546,560.814 678,563.5C 677.667,570.167 677.333,576.833 677,583.5C 676.5,577.175 676.334,570.842 676.5,564.5C 678.669,558.437 682.335,557.103 687.5,560.5 Z"/></g>
<g><path style="opacity:1" fill="#fdf020" d="M 687.5,560.5 C 688.117,560.611 688.617,560.944 689,561.5C 689.811,573.243 689.644,584.909 688.5,596.5C 688.815,584.697 688.481,572.697 687.5,560.5 Z"/></g>
<g><path style="opacity:1" fill="#e5a412" d="M 119.5,197.5 C 119.232,195.901 119.566,194.568 120.5,193.5C 120.351,194.552 120.517,195.552 121,196.5C 121.333,195.167 121.667,193.833 122,192.5C 121.341,403.476 121.341,614.476 122,825.5C 122.251,827.433 122.751,829.266 123.5,831C 123.167,831.167 122.833,831.333 122.5,831.5C 121.702,829.922 121.202,828.256 121,826.5C 120.833,616.666 120.333,407 119.5,197.5 Z"/></g>
<g><path style="opacity:1" fill="#edb81c" d="M 608.5,582.5 C 614.342,582.443 617.342,585.443 617.5,591.5C 615.737,597.879 611.737,599.712 605.5,597C 602.084,591.081 603.084,586.247 608.5,582.5 Z"/></g>
<g><path style="opacity:1" fill="#fded21" d="M 527.5,546.5 C 528.331,561.328 528.831,576.328 529,591.5C 529.374,592.416 529.874,593.25 530.5,594C 546.247,595.136 561.914,595.969 577.5,596.5C 561.404,596.97 545.404,596.47 529.5,595C 528.874,594.25 528.374,593.416 528,592.5C 527.5,577.17 527.333,561.837 527.5,546.5 Z"/></g>
<g><path style="opacity:1" fill="#ecb31b" d="M 725.5,667.5 C 745.814,673.098 754.314,686.432 751,707.5C 743.98,725.926 730.813,733.259 711.5,729.5C 711.77,727.945 707.436,727.612 698.5,728.5C 698.5,708.5 698.5,688.5 698.5,668.5C 707.682,668.827 716.682,668.493 725.5,667.5 Z"/></g>
<g><path style="opacity:1" fill="#efb41b" d="M 497.5,673.5 C 505.411,685.928 513.578,698.262 522,710.5C 522.464,709.906 522.631,709.239 522.5,708.5C 523.496,695.344 523.829,682.01 523.5,668.5C 526.833,668.5 530.167,668.5 533.5,668.5C 533.667,688.503 533.5,708.503 533,728.5C 531.698,729.085 530.531,729.751 529.5,730.5C 526.428,730.817 523.428,730.484 520.5,729.5C 511.212,714.444 501.879,700.11 492.5,686.5C 491.504,700.657 491.171,714.99 491.5,729.5C 488.5,729.5 485.5,729.5 482.5,729.5C 482.5,709.167 482.5,688.833 482.5,668.5C 486.182,668.335 489.848,668.501 493.5,669C 494.733,670.667 496.067,672.167 497.5,673.5 Z"/></g>
<g><path style="opacity:1" fill="#eeb41b" d="M 574.5,673.5 C 580.554,682.228 586.221,691.228 591.5,700.5C 593.413,704.262 595.579,707.929 598,711.5C 599.011,712.337 600.178,712.67 601.5,712.5C 601.5,697.833 601.5,683.167 601.5,668.5C 604.833,668.5 608.167,668.5 611.5,668.5C 611.827,688.743 611.493,708.909 610.5,729C 611.094,729.464 611.761,729.631 612.5,729.5C 608.019,730.648 603.352,730.815 598.5,730C 588.919,714.746 579.252,700.246 569.5,686.5C 568.504,700.657 568.171,714.99 568.5,729.5C 565.5,729.5 562.5,729.5 559.5,729.5C 559.5,709.167 559.5,688.833 559.5,668.5C 563.182,668.335 566.848,668.501 570.5,669C 571.733,670.667 573.067,672.167 574.5,673.5 Z"/></g>
<g><path style="opacity:1" fill="#050302" d="M 709.5,677.5 C 714.736,678.653 720.07,679.487 725.5,680C 734.058,683.076 738.724,689.243 739.5,698.5C 739.009,708.987 733.675,715.487 723.5,718C 718.845,718.499 714.179,718.666 709.5,718.5C 709.5,704.833 709.5,691.167 709.5,677.5 Z"/></g>
<g><path style="opacity:1" fill="#fcda1f" d="M 529.5,730.5 C 530.531,729.751 531.698,729.085 533,728.5C 533.5,708.503 533.667,688.503 533.5,668.5C 530.167,668.5 526.833,668.5 523.5,668.5C 523.829,682.01 523.496,695.344 522.5,708.5C 522.5,694.833 522.5,681.167 522.5,667.5C 526.5,667.5 530.5,667.5 534.5,667.5C 534.5,688.5 534.5,709.5 534.5,730.5C 532.833,730.5 531.167,730.5 529.5,730.5 Z"/></g>
<g><path style="opacity:1" fill="#eab11a" d="M 672.5,667.5 C 673.5,667.5 674.5,667.5 675.5,667.5C 675.789,671.106 675.456,674.606 674.5,678C 665.506,678.5 656.506,678.666 647.5,678.5C 647.5,683.5 647.5,688.5 647.5,693.5C 654.077,694.499 661.41,694.833 669.5,694.5C 669.5,697.5 669.5,700.5 669.5,703.5C 661.981,703.175 654.648,703.508 647.5,704.5C 647.5,709.167 647.5,713.833 647.5,718.5C 656.506,718.334 665.506,718.5 674.5,719C 675.46,722.73 675.793,726.563 675.5,730.5C 662.833,730.5 650.167,730.5 637.5,730.5C 637.5,709.833 637.5,689.167 637.5,668.5C 649.345,668.828 661.012,668.495 672.5,667.5 Z"/></g>
<g><path style="opacity:1" fill="#fcdf1d" d="M 612.5,729.5 C 611.761,729.631 611.094,729.464 610.5,729C 611.493,708.909 611.827,688.743 611.5,668.5C 608.167,668.5 604.833,668.5 601.5,668.5C 601.5,683.167 601.5,697.833 601.5,712.5C 600.178,712.67 599.011,712.337 598,711.5C 595.579,707.929 593.413,704.262 591.5,700.5C 594.797,703.736 597.63,707.403 600,711.5C 600.5,696.837 600.667,682.17 600.5,667.5C 604.5,667.5 608.5,667.5 612.5,667.5C 612.5,688.167 612.5,708.833 612.5,729.5 Z"/></g>
<g><path style="opacity:1" fill="#e4c91d" d="M 497.5,673.5 C 496.067,672.167 494.733,670.667 493.5,669C 489.848,668.501 486.182,668.335 482.5,668.5C 482.5,688.833 482.5,709.167 482.5,729.5C 485.5,729.5 488.5,729.5 491.5,729.5C 491.171,714.99 491.504,700.657 492.5,686.5C 492.5,701.167 492.5,715.833 492.5,730.5C 488.5,730.5 484.5,730.5 480.5,730.5C 480.5,709.5 480.5,688.5 480.5,667.5C 485.179,667.334 489.845,667.501 494.5,668C 496.16,669.488 497.16,671.321 497.5,673.5 Z"/></g>
<g><path style="opacity:1" fill="#efb51b" d="M 300.5,694.5 C 300.062,694.435 299.728,694.601 299.5,695C 314.769,700.804 317.936,710.304 309,723.5C 308.369,720.359 306.702,719.359 304,720.5C 301.03,719.41 300.697,717.744 303,715.5C 304.378,711.102 303.212,707.602 299.5,705C 292.074,702.877 284.741,700.544 277.5,698C 275.578,696.58 274.245,694.747 273.5,692.5C 272.571,691.45 271.905,691.45 271.5,692.5C 266.723,680.539 270.39,672.039 282.5,667C 295.123,663.685 305.623,666.851 314,676.5C 314.617,677.449 314.451,678.282 313.5,679C 310.724,680.037 307.89,680.87 305,681.5C 302.277,680.459 299.777,678.959 297.5,677C 293.5,676.333 289.5,676.333 285.5,677C 280.173,680.293 279.507,684.293 283.5,689C 289.08,691.469 294.746,693.302 300.5,694.5 Z"/></g>
<g><path style="opacity:1" fill="#fee420" d="M 574.5,673.5 C 573.067,672.167 571.733,670.667 570.5,669C 566.848,668.501 563.182,668.335 559.5,668.5C 559.5,688.833 559.5,709.167 559.5,729.5C 562.5,729.5 565.5,729.5 568.5,729.5C 568.171,714.99 568.504,700.657 569.5,686.5C 569.5,701.167 569.5,715.833 569.5,730.5C 565.833,730.5 562.167,730.5 558.5,730.5C 558.5,709.5 558.5,688.5 558.5,667.5C 562.846,667.334 567.179,667.501 571.5,668C 573.16,669.488 574.16,671.321 574.5,673.5 Z"/></g>
<g><path style="opacity:1" fill="#eeb81b" d="M 425.5,667.5 C 429.833,667.5 434.167,667.5 438.5,667.5C 445.925,688.357 453.925,709.024 462.5,729.5C 457.833,730.833 453.167,730.833 448.5,729.5C 447.167,725.833 445.833,722.167 444.5,718.5C 435.853,717.335 427.186,717.168 418.5,718C 416.681,721.946 415.015,725.946 413.5,730C 409.459,730.827 405.459,730.66 401.5,729.5C 408.961,708.586 416.961,687.919 425.5,667.5 Z"/></g>
<g><path style="opacity:1" fill="#0a0603" d="M 430.5,682.5 C 431.586,682.62 432.253,683.287 432.5,684.5C 434.574,692.057 437.241,699.391 440.5,706.5C 434.5,707.833 428.5,707.833 422.5,706.5C 426.172,698.817 428.839,690.817 430.5,682.5 Z"/></g>
<g><path style="opacity:1" fill="#feec1f" d="M 672.5,667.5 C 661.012,668.495 649.345,668.828 637.5,668.5C 637.5,689.167 637.5,709.833 637.5,730.5C 636.503,709.673 636.169,688.673 636.5,667.5C 648.5,667.5 660.5,667.5 672.5,667.5 Z"/></g>
<g><path style="opacity:1" fill="#feef1f" d="M 647.5,693.5 C 655.167,693.5 662.833,693.5 670.5,693.5C 670.5,697.167 670.5,700.833 670.5,704.5C 662.833,704.5 655.167,704.5 647.5,704.5C 654.648,703.508 661.981,703.175 669.5,703.5C 669.5,700.5 669.5,697.5 669.5,694.5C 661.41,694.833 654.077,694.499 647.5,693.5 Z"/></g>
<g><path style="opacity:1" fill="#efb91b" d="M 353.5,666.5 C 369.69,663.438 382.023,668.772 390.5,682.5C 390.291,683.086 389.957,683.586 389.5,684C 383.701,687.757 378.701,687.091 374.5,682C 364.95,675.732 355.783,676.232 347,683.5C 341.404,692.6 341.071,701.933 346,711.5C 353.477,719.766 362.311,721.599 372.5,717C 375.167,715.667 377.167,713.667 378.5,711C 382.459,711.158 386.459,711.325 390.5,711.5C 387.9,721.93 381.233,728.096 370.5,730C 349.234,733.955 336.067,725.455 331,704.5C 329.077,685.984 336.577,673.317 353.5,666.5 Z"/></g>
<g><path style="opacity:1" fill="#fee51f" d="M 725.5,667.5 C 716.682,668.493 707.682,668.827 698.5,668.5C 698.5,688.5 698.5,708.5 698.5,728.5C 707.436,727.612 711.77,727.945 711.5,729.5C 706.833,729.5 702.167,729.5 697.5,729.5C 697.5,708.833 697.5,688.167 697.5,667.5C 706.833,667.5 716.167,667.5 725.5,667.5 Z"/></g>
<g><path style="opacity:1" fill="#efc21b" d="M 300.5,694.5 C 313.405,698.312 317.905,706.645 314,719.5C 310.9,724.8 306.4,728.3 300.5,730C 285.209,734.346 274.209,729.512 267.5,715.5C 267.709,714.914 268.043,714.414 268.5,714C 271.35,712.829 274.184,711.662 277,710.5C 282.241,720.047 289.741,722.547 299.5,718C 303.601,713.706 303.268,709.706 298.5,706C 290.955,704.281 283.622,701.948 276.5,699C 274.235,697.242 272.568,695.075 271.5,692.5C 271.905,691.45 272.571,691.45 273.5,692.5C 274.245,694.747 275.578,696.58 277.5,698C 284.741,700.544 292.074,702.877 299.5,705C 303.212,707.602 304.378,711.102 303,715.5C 300.697,717.744 301.03,719.41 304,720.5C 306.702,719.359 308.369,720.359 309,723.5C 317.936,710.304 314.769,700.804 299.5,695C 299.728,694.601 300.062,694.435 300.5,694.5 Z"/></g>
<g><path style="opacity:1" fill="#efb21a" d="M 274.5,712.5 C 275.552,712.351 276.552,712.517 277.5,713C 279.557,716.723 282.557,719.39 286.5,721C 290.584,721.231 294.584,721.898 298.5,723C 298.694,724.763 298.694,726.597 298.5,728.5C 286.605,731.615 277.438,728.615 271,719.5C 269.991,717.975 269.491,716.308 269.5,714.5C 271.553,714.598 273.22,713.931 274.5,712.5 Z"/></g>
<g><path style="opacity:1" fill="#fce720" d="M 615.5,773.5 C 620.975,772.511 626.642,772.178 632.5,772.5C 632.5,769.5 632.5,766.5 632.5,763.5C 616.833,763.5 601.167,763.5 585.5,763.5C 585.5,766.5 585.5,769.5 585.5,772.5C 591.93,772.167 597.597,772.5 602.5,773.5C 596.5,773.5 590.5,773.5 584.5,773.5C 584.5,769.833 584.5,766.167 584.5,762.5C 601.167,762.5 617.833,762.5 634.5,762.5C 634.5,766.167 634.5,769.833 634.5,773.5C 628.167,773.5 621.833,773.5 615.5,773.5 Z"/></g>
<g><path style="opacity:1" fill="#edb21b" d="M 663.5,772.5 C 663.5,777.5 663.5,782.5 663.5,787.5C 671.352,787.175 679.018,787.508 686.5,788.5C 678.826,788.334 671.159,788.5 663.5,789C 670.826,789.5 678.159,789.666 685.5,789.5C 685.5,792.5 685.5,795.5 685.5,798.5C 677.981,798.175 670.648,798.508 663.5,799.5C 663.5,804.167 663.5,808.833 663.5,813.5C 671.984,814.493 680.651,814.826 689.5,814.5C 689.5,817.5 689.5,820.5 689.5,823.5C 677.167,823.5 664.833,823.5 652.5,823.5C 652.5,803.5 652.5,783.5 652.5,763.5C 664.833,763.5 677.167,763.5 689.5,763.5C 689.5,766.167 689.5,768.833 689.5,771.5C 680.651,771.174 671.984,771.507 663.5,772.5 Z"/></g>
<g><path style="opacity:1" fill="#edb21a" d="M 251.5,773.5 C 251.5,778.5 251.5,783.5 251.5,788.5C 258.648,789.492 265.981,789.825 273.5,789.5C 273.5,792.5 273.5,795.5 273.5,798.5C 265.981,798.175 258.648,798.508 251.5,799.5C 251.826,808.017 251.493,816.35 250.5,824.5C 250.666,816.16 250.5,807.827 250,799.5C 249.5,807.493 249.334,815.493 249.5,823.5C 246.833,823.5 244.167,823.5 241.5,823.5C 241.5,803.5 241.5,783.5 241.5,763.5C 253.5,763.5 265.5,763.5 277.5,763.5C 277.5,766.5 277.5,769.5 277.5,772.5C 268.08,772.168 259.414,772.501 251.5,773.5 Z"/></g>
<g><path style="opacity:1" fill="#eeb71b" d="M 334.5,762.5 C 345.052,761.088 355.718,761.255 366.5,763C 379.622,768.071 383.122,776.904 377,789.5C 374.131,792.704 370.965,795.537 367.5,798C 372.958,806.416 378.292,814.916 383.5,823.5C 379.205,824.661 374.871,824.828 370.5,824C 365.253,816.84 360.253,809.507 355.5,802C 352.518,801.502 349.518,801.335 346.5,801.5C 346.5,808.833 346.5,816.167 346.5,823.5C 342.833,823.5 339.167,823.5 335.5,823.5C 335.83,802.993 335.497,782.66 334.5,762.5 Z"/></g>
<g><path style="opacity:1" fill="#eaae1a" d="M 492.5,762.5 C 498.026,762.179 503.36,762.512 508.5,763.5C 503.489,763.334 498.489,763.501 493.5,764C 498.155,764.499 502.821,764.666 507.5,764.5C 507.5,767.167 507.5,769.833 507.5,772.5C 501.07,772.167 495.403,772.5 490.5,773.5C 490.5,774.167 490.167,774.5 489.5,774.5C 488.504,790.658 488.17,806.991 488.5,823.5C 485.167,823.5 481.833,823.5 478.5,823.5C 478.667,806.83 478.5,790.163 478,773.5C 477.5,790.497 477.333,807.497 477.5,824.5C 476.503,807.675 476.17,790.675 476.5,773.5C 471.025,772.511 465.358,772.178 459.5,772.5C 459.5,769.5 459.5,766.5 459.5,763.5C 470.679,763.828 481.679,763.495 492.5,762.5 Z"/></g>
<g><path style="opacity:1" fill="#ecb01b" d="M 615.5,773.5 C 615.83,790.675 615.497,807.675 614.5,824.5C 614.667,807.497 614.5,790.497 614,773.5C 613.5,790.163 613.333,806.83 613.5,823.5C 610.5,823.5 607.5,823.5 604.5,823.5C 604.83,806.991 604.496,790.658 603.5,774.5C 602.833,774.5 602.5,774.167 602.5,773.5C 597.597,772.5 591.93,772.167 585.5,772.5C 585.5,769.5 585.5,766.5 585.5,763.5C 601.167,763.5 616.833,763.5 632.5,763.5C 632.5,766.5 632.5,769.5 632.5,772.5C 626.642,772.178 620.975,772.511 615.5,773.5 Z"/></g>
<g><path style="opacity:1" fill="#feec1f" d="M 492.5,762.5 C 481.679,763.495 470.679,763.828 459.5,763.5C 459.5,766.5 459.5,769.5 459.5,772.5C 465.358,772.178 471.025,772.511 476.5,773.5C 470.5,773.5 464.5,773.5 458.5,773.5C 458.5,769.833 458.5,766.167 458.5,762.5C 469.833,762.5 481.167,762.5 492.5,762.5 Z"/></g>
<g><path style="opacity:1" fill="#fef01d" d="M 310.5,763.5 C 306.833,763.5 303.167,763.5 299.5,763.5C 299.5,783.5 299.5,803.5 299.5,823.5C 303.167,823.5 306.833,823.5 310.5,823.5C 306.702,824.483 302.702,824.817 298.5,824.5C 298.5,803.833 298.5,783.167 298.5,762.5C 302.702,762.183 306.702,762.517 310.5,763.5 Z"/></g>
<g><path style="opacity:1" fill="#040302" d="M 346.5,772.5 C 351.58,772.25 356.58,772.75 361.5,774C 367.692,777.696 368.025,782.029 362.5,787C 357.405,789.177 352.072,790.01 346.5,789.5C 346.5,783.833 346.5,778.167 346.5,772.5 Z"/></g>
<g><path style="opacity:1" fill="#feea20" d="M 508.5,763.5 C 508.5,766.833 508.5,770.167 508.5,773.5C 502.5,773.5 496.5,773.5 490.5,773.5C 495.403,772.5 501.07,772.167 507.5,772.5C 507.5,769.833 507.5,767.167 507.5,764.5C 502.821,764.666 498.155,764.499 493.5,764C 498.489,763.501 503.489,763.334 508.5,763.5 Z"/></g>
<g><path style="opacity:1" fill="#f3c71a" d="M 739.5,787.5 C 735.772,780.568 732.106,772.902 728.5,764.5C 723.544,763.506 718.544,763.173 713.5,763.5C 713.5,783.5 713.5,803.5 713.5,823.5C 712.833,823.5 712.167,823.5 711.5,823.5C 711.5,802.833 711.5,782.167 711.5,761.5C 717.176,761.334 722.843,761.501 728.5,762C 732.858,770.215 736.525,778.715 739.5,787.5 Z"/></g>
<g><path style="opacity:1" fill="#f9c81a" d="M 552.5,761.5 C 556.857,761.586 561.19,761.92 565.5,762.5C 565.5,783.167 565.5,803.833 565.5,824.5C 561.167,824.5 556.833,824.5 552.5,824.5C 552.5,803.5 552.5,782.5 552.5,761.5 Z"/></g>
<g><path style="opacity:1" fill="#eeb119" d="M 554.5,763.5 C 557.5,763.5 560.5,763.5 563.5,763.5C 563.5,783.5 563.5,803.5 563.5,823.5C 560.5,823.5 557.5,823.5 554.5,823.5C 554.5,803.5 554.5,783.5 554.5,763.5 Z"/></g>
<g><path style="opacity:1" fill="#f2cf1e" d="M 781.5,822.5 C 780.503,803.007 780.17,783.34 780.5,763.5C 774.833,763.5 769.167,763.5 763.5,763.5C 769.074,761.547 775.074,760.88 781.5,761.5C 781.5,781.833 781.5,802.167 781.5,822.5 Z"/></g>
<g><path style="opacity:1" fill="#fde71d" d="M 686.5,788.5 C 686.5,792.167 686.5,795.833 686.5,799.5C 678.833,799.5 671.167,799.5 663.5,799.5C 670.648,798.508 677.981,798.175 685.5,798.5C 685.5,795.5 685.5,792.5 685.5,789.5C 678.159,789.666 670.826,789.5 663.5,789C 671.159,788.5 678.826,788.334 686.5,788.5 Z"/></g>
<g><path style="opacity:1" fill="#fedf1b" d="M 614.5,824.5 C 610.833,824.5 607.167,824.5 603.5,824.5C 603.5,807.833 603.5,791.167 603.5,774.5C 604.496,790.658 604.83,806.991 604.5,823.5C 607.5,823.5 610.5,823.5 613.5,823.5C 613.333,806.83 613.5,790.163 614,773.5C 614.5,790.497 614.667,807.497 614.5,824.5 Z"/></g>
<g><path style="opacity:1" fill="#ebd31d" d="M 663.5,772.5 C 671.984,771.507 680.651,771.174 689.5,771.5C 689.5,768.833 689.5,766.167 689.5,763.5C 677.167,763.5 664.833,763.5 652.5,763.5C 652.5,783.5 652.5,803.5 652.5,823.5C 664.833,823.5 677.167,823.5 689.5,823.5C 689.5,820.5 689.5,817.5 689.5,814.5C 680.651,814.826 671.984,814.493 663.5,813.5C 672.833,813.5 682.167,813.5 691.5,813.5C 691.5,817.167 691.5,820.833 691.5,824.5C 677.833,824.5 664.167,824.5 650.5,824.5C 650.5,803.833 650.5,783.167 650.5,762.5C 663.833,762.5 677.167,762.5 690.5,762.5C 690.5,765.833 690.5,769.167 690.5,772.5C 681.5,772.5 672.5,772.5 663.5,772.5 Z"/></g>
<g><path style="opacity:1" fill="#b48b15" d="M 278.5,762.5 C 265.833,762.5 253.167,762.5 240.5,762.5C 240.5,783.167 240.5,803.833 240.5,824.5C 239.503,803.673 239.169,782.673 239.5,761.5C 252.677,761.171 265.677,761.505 278.5,762.5 Z"/></g>
<g><path style="opacity:1" fill="#f9e01f" d="M 251.5,788.5 C 259.5,788.5 267.5,788.5 275.5,788.5C 275.5,792.167 275.5,795.833 275.5,799.5C 267.5,799.5 259.5,799.5 251.5,799.5C 258.648,798.508 265.981,798.175 273.5,798.5C 273.5,795.5 273.5,792.5 273.5,789.5C 265.981,789.825 258.648,789.492 251.5,788.5 Z"/></g>
<g><path style="opacity:1" fill="#feec21" d="M 334.5,762.5 C 335.497,782.66 335.83,802.993 335.5,823.5C 339.167,823.5 342.833,823.5 346.5,823.5C 342.702,824.483 338.702,824.817 334.5,824.5C 334.5,803.833 334.5,783.167 334.5,762.5 Z"/></g>
<g><path style="opacity:1" fill="#feea1e" d="M 489.5,774.5 C 489.5,791.167 489.5,807.833 489.5,824.5C 485.5,824.5 481.5,824.5 477.5,824.5C 477.333,807.497 477.5,790.497 478,773.5C 478.5,790.163 478.667,806.83 478.5,823.5C 481.833,823.5 485.167,823.5 488.5,823.5C 488.17,806.991 488.504,790.658 489.5,774.5 Z"/></g>
<g><path style="opacity:1" fill="#fef41d" d="M 723.5,780.5 C 723.5,795.167 723.5,809.833 723.5,824.5C 719.298,824.817 715.298,824.483 711.5,823.5C 712.167,823.5 712.833,823.5 713.5,823.5C 716.5,823.5 719.5,823.5 722.5,823.5C 722.171,808.99 722.504,794.657 723.5,780.5 Z"/></g>
<g><path style="opacity:1" fill="#eab019" d="M 310.5,763.5 C 310.5,783.5 310.5,803.5 310.5,823.5C 306.833,823.5 303.167,823.5 299.5,823.5C 299.5,803.5 299.5,783.5 299.5,763.5C 303.167,763.5 306.833,763.5 310.5,763.5 Z"/></g>
<g><path style="opacity:1" fill="#53390a" d="M 725.5,781.5 C 724.833,795.833 724.167,810.167 723.5,824.5C 723.5,809.833 723.5,795.167 723.5,780.5C 724.062,778.335 724.729,778.668 725.5,781.5 Z"/></g>
<g><path style="opacity:1" fill="#eeb61b" d="M 739.5,787.5 C 741.891,792.475 744.391,797.475 747,802.5C 752.038,789.195 757.538,776.195 763.5,763.5C 769.167,763.5 774.833,763.5 780.5,763.5C 780.17,783.34 780.503,803.007 781.5,822.5C 781.672,823.492 781.338,824.158 780.5,824.5C 777.375,823.521 774.042,823.187 770.5,823.5C 770.829,808.657 770.496,793.99 769.5,779.5C 763.259,792.32 757.259,805.32 751.5,818.5C 747.955,819.791 744.455,819.791 741,818.5C 735.269,806.375 730.102,794.042 725.5,781.5C 724.729,778.668 724.062,778.335 723.5,780.5C 722.504,794.657 722.171,808.99 722.5,823.5C 719.5,823.5 716.5,823.5 713.5,823.5C 713.5,803.5 713.5,783.5 713.5,763.5C 718.544,763.173 723.544,763.506 728.5,764.5C 732.106,772.902 735.772,780.568 739.5,787.5 Z"/></g>
<g><path style="opacity:1" fill="#feef1e" d="M 769.5,779.5 C 770.496,793.99 770.829,808.657 770.5,823.5C 774.042,823.187 777.375,823.521 780.5,824.5C 776.833,824.5 773.167,824.5 769.5,824.5C 769.5,809.5 769.5,794.5 769.5,779.5 Z"/></g>
<g><path style="opacity:1" fill="#fee21c" d="M 278.5,762.5 C 278.5,766.167 278.5,769.833 278.5,773.5C 269.5,773.5 260.5,773.5 251.5,773.5C 259.414,772.501 268.08,772.168 277.5,772.5C 277.5,769.5 277.5,766.5 277.5,763.5C 265.5,763.5 253.5,763.5 241.5,763.5C 241.5,783.5 241.5,803.5 241.5,823.5C 244.167,823.5 246.833,823.5 249.5,823.5C 249.334,815.493 249.5,807.493 250,799.5C 250.5,807.827 250.666,816.16 250.5,824.5C 247.167,824.5 243.833,824.5 240.5,824.5C 240.5,803.833 240.5,783.167 240.5,762.5C 253.167,762.5 265.833,762.5 278.5,762.5 Z"/></g>
<g><path style="opacity:1" fill="#efb71b" d="M 414.5,760.5 C 422.023,759.927 429.356,760.76 436.5,763C 440.752,765.419 443.752,768.919 445.5,773.5C 442.493,774.937 439.326,775.937 436,776.5C 432.168,772.585 427.502,770.585 422,770.5C 417.578,769.909 414.244,771.576 412,775.5C 411.245,778.497 412.078,780.997 414.5,783C 421.332,785.793 428.332,788.126 435.5,790C 448.082,799.502 448.749,809.835 437.5,821C 429.311,825.606 420.644,826.606 411.5,824C 405.429,820.93 401.096,816.263 398.5,810C 398.645,809.228 398.978,808.561 399.5,808C 402,807.167 404.5,806.333 407,805.5C 409.434,807.934 411.934,810.434 414.5,813C 419.139,814.932 423.806,814.932 428.5,813C 432.892,810.037 433.559,806.37 430.5,802C 424.199,798.754 417.532,796.421 410.5,795C 401.898,789.875 398.731,782.375 401,772.5C 403.833,766.493 408.333,762.493 414.5,760.5 Z"/></g>
<g><path style="opacity:1" fill="#f3c013" d="M 171.5,874.5 C 397.812,875.496 624.146,875.829 850.5,875.5C 850.506,876.417 849.506,876.917 847.5,877C 625.167,877.667 402.833,877.667 180.5,877C 177.044,876.82 173.711,876.153 170.5,875C 170.728,874.601 171.062,874.435 171.5,874.5 Z"/></g>
</svg>
