<?xml version="1.0" encoding="UTF-8"?>
<svg width="18px" height="18px" viewBox="0 0 18 18" version="1.1" xmlns="http://www.w3.org/2000/svg">
    <g stroke="none" stroke-width="1" fill="none" fill-rule="evenodd">
        <path d="M14.94,9.5 C14.94,7.5 16.5,6.5 16.6,6.44 C15.5,4.5 13.8,4.2 13.2,4.18 C11.8,4.04 10.4,5.1 9.7,5.1 C9,5.1 7.9,4.2 6.7,4.24 C5.1,4.28 3.6,5.2 2.8,6.66 C1.1,9.5 2.3,13.5 4,15.5 C4.8,16.5 5.8,17.6 7,17.56 C8.2,17.5 8.7,16.9 10,16.9 C11.3,16.9 11.7,17.56 13,17.54 C14.3,17.5 15.2,16.5 16,15.46 C16.8,14.42 17.2,13.38 17.22,13.32 C17.18,13.3 14.96,12.3 14.94,9.5 Z" fill="#FFFFFF"></path>
        <path d="M12.3,3.5 C13,2.7 13.5,1.5 13.4,0.3 C12.4,0.4 11.2,1 10.5,1.8 C9.9,2.5 9.3,3.7 9.4,4.9 C10.5,5 11.7,4.4 12.3,3.5 Z" fill="#FFFFFF"></path>
    </g>
</svg> 